# xmcd
# 
# Track frame offsets:
#     150
#     15492
#     32972
#     51739
#     69264
#     86879
#     103781
#     119183
#     136296
#     151146
#     170135
#     185731
#     216034
#     234841
#     251296
#     266944
# 
# Disc length: 3761
# 
# Revision: 3
# Processed by: cddbd v1.5.2PL0 Copyright (c) Steve Scherf et al.
# Submitted via: BonkEnc v1.0.8
# 
DISCID=ed0eaf10
DTITLE=Grégory Lemarchal - Rêves
DYEAR=2009
DGENRE=chanson
TTITLE0=Tu prends
TTITLE1=Je rêve
TTITLE2=Ecris l'histoire
TTITLE3=Mieux qu'ici bas
TTITLE4=De temps en temps
TTITLE5=Je suis en vie
TTITLE6=SOS d'un terrien en détresse
TTITLE7=Même si
TTITLE8=Entre nous
TTITLE9=Le feu sur les planches
TTITLE10=Restons amis
TTITLE11=Je t'écris
TTITLE12=A corps perdu
TTITLE13=Zora sourit
TTITLE14=Le lien
TTITLE15=Quand on n'a que l'amour
EXTD=CD postume
EXTT0=
EXTT1=
EXTT2=
EXTT3=
EXTT4=
EXTT5=
EXTT6=
EXTT7=en duo avec Lucie Silvas
EXTT8=
EXTT9=
EXTT10=
EXTT11=
EXTT12=
EXTT13=
EXTT14=
EXTT15=
PLAYORDER=
